<svg width="472" height="54" viewBox="0 0 472 54" fill="none" xmlns="http://www.w3.org/2000/svg">
<path fill-rule="evenodd" clip-rule="evenodd" d="M82.8923 45.6H81.2307V36.3692H82.8923V45.6ZM92.123 39.9692H91.0153V38.9538H92.123V38.4C92.123 36.6462 93.0461 36.3692 93.9692 36.3692C94.4307 36.3692 94.7076 36.3692 94.9846 36.4615V37.5692C94.7999 37.4769 94.6153 37.4769 94.3384 37.4769C93.9692 37.4769 93.5999 37.6615 93.5999 38.2154V38.8615H94.8923V39.9692H93.5999V45.6H92.123V39.9692ZM115.015 37.7538H113.538V36.3692H115.015V37.7538ZM145.015 45.6H141.138V36.3692H145.015C147.877 36.3692 149.077 38.4 149.077 40.9846C149.077 43.5692 147.877 45.6 145.015 45.6ZM151.569 37.7538H150.092V36.3692H151.569V37.7538ZM152.585 43.3846C152.585 43.4157 152.585 43.4465 152.586 43.4769H152.585V43.3846ZM152.586 43.4769H154.154C154.154 44.4 154.8 44.6769 155.631 44.6769C156.185 44.6769 157.108 44.4923 157.108 43.7538C157.03 43.1341 156.302 42.9694 155.416 42.7688C155.246 42.7304 155.07 42.6907 154.892 42.6462C153.877 42.3692 152.769 42 152.769 40.6154C152.769 39.1385 154.338 38.6769 155.538 38.6769C156.923 38.6769 158.123 39.2308 158.308 40.7077H156.738C156.554 39.9692 156 39.7846 155.354 39.7846C154.985 39.7846 154.154 39.8769 154.154 40.4308C154.154 41.0425 154.914 41.2108 155.805 41.408C155.989 41.4489 156.179 41.491 156.369 41.5385C157.385 41.7231 158.492 42.1846 158.492 43.4769C158.492 45.1385 156.923 45.6923 155.538 45.6923C153.91 45.6923 152.636 44.9828 152.586 43.4769ZM172.061 40.6154C172.061 39.2308 170.677 38.6769 169.385 38.6769C167.908 38.6769 166.431 39.1385 166.338 40.8923H167.815C167.908 40.1538 168.461 39.7846 169.292 39.7846C169.846 39.7846 170.677 39.9692 170.677 40.7077C170.677 41.3745 170.082 41.4466 169.275 41.5446C169.076 41.5687 168.865 41.5943 168.646 41.6308C167.446 41.8154 166.061 42.0923 166.061 43.7538C166.061 45.0462 167.169 45.6923 168.369 45.6923C169.2 45.6923 170.123 45.4154 170.677 44.8615C170.769 45.5077 171.231 45.6923 171.785 45.6923C172.061 45.6923 172.523 45.6 172.708 45.5077V44.4923H172.338C172.061 44.4923 171.969 44.3077 171.969 44.0308V40.6154H172.061ZM173.078 43.4769C173.077 43.4465 173.077 43.4157 173.077 43.3846V43.4769H173.078ZM173.078 43.4769C173.128 44.9828 174.402 45.6923 176.031 45.6923C177.415 45.6923 178.985 45.1385 178.985 43.4769C178.985 42.1846 177.877 41.7231 176.861 41.5385C176.671 41.491 176.481 41.4489 176.297 41.408C175.406 41.2108 174.646 41.0425 174.646 40.4308C174.646 39.8769 175.477 39.7846 175.846 39.7846C176.492 39.7846 177.046 39.9692 177.231 40.7077H178.8C178.615 39.2308 177.415 38.6769 176.031 38.6769C174.831 38.6769 173.261 39.1385 173.261 40.6154C173.261 42 174.277 42.3692 175.385 42.6462C175.563 42.6907 175.738 42.7304 175.908 42.7688C176.795 42.9694 177.522 43.1341 177.6 43.7538C177.6 44.4923 176.677 44.6769 176.123 44.6769C175.292 44.6769 174.646 44.4 174.646 43.4769H173.078ZM186.555 43.4769C186.554 43.4465 186.554 43.4157 186.554 43.3846V43.4769H186.555ZM186.555 43.4769C186.605 44.9828 187.879 45.6923 189.508 45.6923C190.892 45.6923 192.461 45.1385 192.461 43.4769C192.461 42.1846 191.354 41.7231 190.338 41.5385C190.148 41.491 189.958 41.4489 189.774 41.408C188.883 41.2108 188.123 41.0425 188.123 40.4308C188.123 39.8769 188.954 39.7846 189.323 39.7846C189.969 39.7846 190.523 39.9692 190.708 40.7077H192.277C192.092 39.2308 190.892 38.6769 189.508 38.6769C188.308 38.6769 186.738 39.1385 186.738 40.6154C186.738 42 187.754 42.3692 188.861 42.6462C189.04 42.6907 189.215 42.7304 189.385 42.7688C190.272 42.9694 190.999 43.1341 191.077 43.7538C191.077 44.4923 190.154 44.6769 189.6 44.6769C188.769 44.6769 188.123 44.4 188.123 43.4769H186.555ZM182.769 39.8769C181.754 39.8769 181.015 40.6154 181.015 41.6308H184.431C184.431 40.7077 183.785 39.8769 182.769 39.8769ZM186 42.6462C186.277 40.6154 184.985 38.7692 182.861 38.7692C180.831 38.7692 179.631 40.4308 179.631 42.2769C179.631 44.3077 180.831 45.7846 182.954 45.7846C184.431 45.7846 185.631 44.9538 186 43.4769H184.615C184.338 44.2154 183.877 44.5846 182.954 44.5846C181.754 44.5846 181.108 43.6615 181.108 42.6462H186ZM168.923 44.5846C169.569 44.5846 170.585 44.2154 170.585 43.2923V42.2769C170.238 42.4846 169.736 42.5365 169.235 42.5885C169.067 42.6058 168.9 42.6231 168.738 42.6462C168.092 42.7385 167.538 43.0154 167.538 43.7538C167.538 44.4 168.369 44.5846 168.923 44.5846ZM160.615 41.6308C160.615 40.6154 161.354 39.8769 162.369 39.8769C163.385 39.8769 164.031 40.7077 164.031 41.6308H160.615ZM162.369 38.7692C164.492 38.7692 165.785 40.6154 165.508 42.6462H160.615C160.615 43.6615 161.261 44.5846 162.461 44.5846C163.385 44.5846 163.846 44.2154 164.123 43.4769H165.508C165.138 44.9538 163.938 45.7846 162.461 45.7846C160.338 45.7846 159.138 44.3077 159.138 42.2769C159.138 40.4308 160.338 38.7692 162.369 38.7692ZM150.092 45.6H151.569V38.8615H150.092V45.6ZM142.8 37.6615H144.369C146.954 37.6615 147.415 39.1385 147.415 40.9846C147.415 42.8308 146.861 44.3077 144.369 44.3077H142.8V37.6615ZM130.709 43.4769C130.708 43.4465 130.708 43.4157 130.708 43.3846V43.4769H130.709ZM133.661 45.6923C132.033 45.6923 130.759 44.9828 130.709 43.4769H132.277C132.277 44.4 132.923 44.6769 133.754 44.6769C134.308 44.6769 135.231 44.4923 135.231 43.7538C135.153 43.1341 134.426 42.9694 133.539 42.7688L133.539 42.7688C133.369 42.7304 133.193 42.6907 133.015 42.6462C132 42.3692 130.892 42 130.892 40.6154C130.892 39.1385 132.461 38.6769 133.661 38.6769C135.046 38.6769 136.246 39.2308 136.431 40.7077H134.861C134.677 39.9692 134.123 39.7846 133.477 39.7846C133.108 39.7846 132.277 39.8769 132.277 40.4308C132.277 41.0425 133.037 41.2108 133.928 41.408C134.112 41.4489 134.302 41.491 134.492 41.5385C135.508 41.7231 136.615 42.1846 136.615 43.4769C136.615 45.1385 135.046 45.6923 133.661 45.6923ZM129.785 38.8615H128.308V42.7385C128.308 43.7538 127.938 44.5846 126.646 44.5846C125.815 44.5846 125.354 44.1231 125.354 43.0154V38.8615H123.877V43.1077C123.877 44.8615 124.615 45.7846 126.369 45.7846C127.108 45.7846 127.938 45.3231 128.308 44.6769V45.6H129.785V38.8615ZM122.861 42.2769C122.861 44.3077 121.569 45.7846 119.446 45.7846C117.323 45.7846 116.123 44.3077 116.031 42.2769C116.031 40.2462 117.323 38.7692 119.446 38.7692C121.661 38.7692 122.861 40.2462 122.861 42.2769ZM119.446 44.5846C118.154 44.5846 117.508 43.3846 117.508 42.1846C117.508 41.0769 118.061 39.7846 119.446 39.7846C120.738 39.7846 121.385 40.9846 121.385 42.1846C121.385 43.3846 120.831 44.5846 119.446 44.5846ZM113.538 45.6H115.015V38.8615H113.538V45.6ZM109.846 39.9692H108.738V38.9538H109.846V36.9231H111.231V38.9538H112.523V40.0615H111.231V43.6615C111.231 44.3077 111.323 44.5846 111.969 44.5846C112.154 44.5846 112.431 44.5846 112.615 44.4923V45.6C112.487 45.6 112.358 45.6199 112.221 45.6412C112.061 45.6658 111.89 45.6923 111.692 45.6923C110.123 45.6923 109.846 45.0462 109.846 43.9385V39.9692ZM108.461 41.0769C108.277 39.4154 106.985 38.6769 105.415 38.6769C103.2 38.6769 102.092 40.2462 102.092 42.2769C102.092 44.2154 103.2 45.7846 105.323 45.7846C107.077 45.7846 108.092 44.8615 108.369 43.1077H106.892C106.708 44.0308 106.154 44.6769 105.323 44.6769C104.031 44.6769 103.569 43.4769 103.569 42.3692C103.569 40.3385 104.677 39.9692 105.415 39.9692C106.246 39.9692 106.8 40.4308 106.985 41.2615H108.461V41.0769ZM98.3999 39.8769C97.3846 39.8769 96.6461 40.6154 96.6461 41.6308H100.061C100.061 40.7077 99.4153 39.8769 98.3999 39.8769ZM101.538 42.6462C101.815 40.6154 100.523 38.7692 98.3999 38.7692C96.3692 38.7692 95.1692 40.4308 95.1692 42.2769C95.1692 44.3077 96.3692 45.7846 98.4923 45.7846C99.9692 45.7846 101.169 44.9538 101.538 43.4769H100.154C99.8769 44.2154 99.4153 44.5846 98.4923 44.5846C97.2923 44.5846 96.6461 43.6615 96.6461 42.6462H101.538ZM84.4615 45.6H85.9384V41.6308C85.9384 40.6154 86.5846 39.8769 87.5999 39.8769C88.4307 39.8769 88.8922 40.3385 88.8922 41.3538V45.6H90.3692V40.9846C90.3692 39.5077 89.4461 38.6769 87.9692 38.6769C87.0461 38.6769 86.3076 39.1385 85.8461 39.8769V38.8615H84.4615V45.6Z" fill="white"/>
<path fill-rule="evenodd" clip-rule="evenodd" d="M144.369 19.8462H142.892V23.2615C142.431 22.5231 141.508 22.2462 140.677 22.2462C139.2 22.2462 137.815 23.2615 137.815 25.7538C137.815 27.7846 138.831 29.3538 140.954 29.3538C141.785 29.3538 142.615 28.9846 142.985 28.2462V29.1692H144.369V19.8462ZM139.2 25.8462C139.2 24.6462 139.661 23.4462 141.046 23.4462C142.154 23.4462 142.892 24.3692 142.892 25.8462C142.892 27.0462 142.338 28.2462 141.046 28.2462C139.754 28.1538 139.2 27.0462 139.2 25.8462ZM132.369 29.1692H130.892V22.4308H132.277V23.4462C132.738 22.7077 133.477 22.2462 134.4 22.2462C135.877 22.2462 136.8 23.0769 136.8 24.5538V29.1692H135.323V24.9231C135.323 23.9077 134.861 23.4462 134.031 23.4462C133.015 23.4462 132.369 24.1846 132.369 25.2V29.1692ZM129.508 24.1846C129.508 22.8 128.123 22.2462 126.831 22.2462C125.354 22.2462 123.877 22.7077 123.785 24.4615H125.261C125.354 23.7231 125.908 23.4462 126.738 23.4462C127.292 23.4462 128.123 23.6308 128.123 24.3692C128.123 25.036 127.528 25.1082 126.721 25.2061C126.522 25.2302 126.311 25.2559 126.092 25.2923L126.036 25.301C124.849 25.4831 123.508 25.689 123.508 27.4154C123.508 28.7077 124.615 29.3538 125.815 29.3538C126.646 29.3538 127.569 29.0769 128.123 28.5231C128.215 29.1692 128.677 29.3538 129.231 29.3538C129.508 29.3538 129.969 29.2615 130.154 29.1692V28.1538H129.785C129.508 28.1538 129.415 27.9692 129.415 27.6923V24.1846H129.508ZM126.369 28.1538C127.015 28.1538 128.031 27.7846 128.031 26.8615V25.8462C127.685 26.0538 127.183 26.1058 126.681 26.1577C126.513 26.175 126.346 26.1923 126.185 26.2154C125.538 26.3077 124.985 26.5846 124.985 27.3231C124.985 27.9692 125.815 28.1538 126.369 28.1538ZM115.846 29.0769L115.661 29.6308C115.477 30.1846 115.292 30.5538 114.646 30.5538C114.508 30.5538 114.392 30.5308 114.277 30.5077C114.161 30.4846 114.046 30.4615 113.908 30.4615V31.6615C114.277 31.7538 114.554 31.7538 114.923 31.7538C116.439 31.7538 116.835 30.7199 117.276 29.5677L117.323 29.4462L119.908 22.3385H118.338L116.677 27.3231L114.923 22.3385H113.261L115.846 29.0769ZM111.323 22.4308H112.8H112.892V28.7077C112.892 30.7385 111.692 31.7538 109.569 31.7538C108.277 31.7538 106.708 31.2 106.615 29.6308H108.092C108.277 30.4615 108.923 30.6462 109.661 30.6462C110.861 30.6462 111.415 30 111.415 28.8923V27.8769C110.954 28.6154 110.215 29.0769 109.385 29.0769C107.261 29.0769 106.338 27.5077 106.338 25.5692C106.338 23.8154 107.446 22.2462 109.385 22.2462C110.215 22.2462 110.954 22.6154 111.323 23.3538V22.4308ZM109.477 27.9692C108.277 27.9692 107.723 26.8615 107.723 25.7538C107.723 24.6462 108.185 23.4462 109.477 23.4462C110.769 23.4462 111.323 24.4615 111.323 25.6615C111.323 26.7692 110.769 27.9692 109.477 27.9692ZM103.754 29.1692H102.369V22.5231H103.754V23.8154C103.938 23.0769 104.769 22.3385 105.692 22.3385H106.246V23.7231C106.061 23.6308 105.785 23.6308 105.6 23.6308C104.585 23.6308 103.754 24.4615 103.754 25.9385V29.1692ZM96.3692 25.2C96.3692 24.1846 97.1076 23.4462 98.123 23.4462C99.1384 23.4462 99.7846 24.2769 99.7846 25.2H96.3692ZM98.2153 22.3385C100.338 22.3385 101.631 24.1846 101.354 26.2154H96.4615C96.4615 27.2308 97.1076 28.1538 98.3076 28.1538C99.2307 28.1538 99.6923 27.7846 99.9692 27.0462H101.354C100.985 28.5231 99.7846 29.3538 98.3076 29.3538C96.1846 29.3538 94.9846 27.8769 94.9846 25.8462C94.9846 24 96.1846 22.3385 98.2153 22.3385ZM92.3999 29.1692H93.8769V19.9385H92.3999V29.1692ZM91.0153 29.1692H89.5384V19.9385H91.0153V29.1692ZM80.2153 29.1692H81.8769L82.7076 26.6769H86.3999L87.2307 29.1692H88.9846L85.3846 19.9385H83.6307L80.2153 29.1692ZM85.9384 25.4769L84.5538 21.5077L83.0769 25.4769H85.9384Z" fill="white"/>
<path fill-rule="evenodd" clip-rule="evenodd" d="M82.7999 12.7385H81.2307V3.50769H82.9846L87.2307 10.3385V3.50769H88.7999V12.7385H87.0461L82.7999 5.90769V12.7385ZM101.261 4.89231H102.738V3.50769H101.261V4.89231ZM125.815 12.7385H127.292V3.50769H125.815V12.7385ZM133.938 12.7385H132.277V3.50769H133.938V12.7385ZM153.231 4.89231H154.708V3.50769H153.231V4.89231ZM189.692 7.10769H188.585V6.09231H189.692V5.53846C189.692 3.78461 190.615 3.50769 191.538 3.50769C192 3.50769 192.277 3.50769 192.554 3.6V4.70769C192.369 4.61538 192.185 4.61538 191.908 4.61538C191.538 4.61538 191.169 4.8 191.169 5.35384V6H192.461V7.10769H191.169V12.7385H189.692V7.10769ZM188.308 9.41538C188.308 11.4462 187.015 12.9231 184.892 12.9231C182.769 12.9231 181.477 11.4462 181.477 9.41538C181.477 7.38461 182.769 5.90769 184.892 5.90769C187.108 5.90769 188.308 7.38461 188.308 9.41538ZM184.892 11.7231C183.6 11.7231 182.954 10.5231 182.954 9.32307C182.954 8.12308 183.508 6.92308 184.892 6.92308C186.185 6.92308 186.831 8.12308 186.831 9.32307C186.831 10.5231 186.185 11.7231 184.892 11.7231ZM174.369 7.01538C173.354 7.01538 172.615 7.75384 172.615 8.76923H176.031C176.031 7.84615 175.385 7.01538 174.369 7.01538ZM177.508 9.78461C177.785 7.75384 176.492 5.90769 174.369 5.90769C172.338 5.90769 171.138 7.56923 171.138 9.41538C171.138 11.4462 172.338 12.9231 174.461 12.9231C175.938 12.9231 177.138 12.0923 177.508 10.6154H176.123C175.846 11.3538 175.385 11.7231 174.461 11.7231C173.261 11.7231 172.615 10.8 172.615 9.69231H177.508V9.78461ZM167.815 7.10769H166.708H166.615V6H167.723V3.96923H169.2V6H170.492V7.10769H169.2V10.8C169.2 11.4462 169.292 11.7231 169.938 11.7231C170.123 11.7231 170.4 11.7231 170.585 11.6308V12.7385C170.456 12.7385 170.328 12.7583 170.19 12.7797C170.031 12.8043 169.859 12.8308 169.661 12.8308C168.092 12.8308 167.815 12.1846 167.815 11.0769V7.10769ZM166.061 6H164.585V9.87692C164.585 10.8923 164.123 11.7231 162.923 11.7231C162.092 11.7231 161.631 11.2615 161.631 10.1538V6H160.154V10.2462C160.154 12 160.892 12.8308 162.646 12.8308C163.385 12.8308 164.215 12.3692 164.585 11.7231V12.6462H166.061V6ZM156.554 7.10769H155.446H155.354V6H156.461V3.96923H157.938V6H159.231V7.10769H157.938V10.8C157.938 11.4462 158.031 11.7231 158.677 11.7231C158.954 11.7231 159.138 11.7231 159.323 11.6308V12.7385C159.195 12.7385 159.066 12.7583 158.928 12.7797C158.769 12.8043 158.598 12.8308 158.4 12.8308C156.831 12.8308 156.554 12.1846 156.554 11.0769V7.10769ZM154.708 12.7385H153.231V6H154.708V12.7385ZM148.431 7.10769H149.538V11.0769C149.538 12.1846 149.815 12.8308 151.385 12.8308C151.582 12.8308 151.754 12.8043 151.913 12.7797C152.051 12.7583 152.179 12.7385 152.308 12.7385V11.6308C152.123 11.7231 151.938 11.7231 151.661 11.7231C151.015 11.7231 150.923 11.4462 150.923 10.8V7.10769H152.215V6H150.923V3.96923H149.538V6H148.431V7.10769ZM145.2 12.9231C143.538 12.9231 142.246 12.1846 142.246 10.6154H143.815C143.815 11.5385 144.461 11.8154 145.292 11.8154C145.846 11.8154 146.769 11.6308 146.769 10.8923C146.692 10.2725 145.964 10.1079 145.077 9.90728C144.907 9.86886 144.732 9.82912 144.554 9.78461C143.538 9.6 142.431 9.23077 142.431 7.84615C142.431 6.36923 144 5.90769 145.2 5.90769C146.585 5.90769 147.785 6.46154 147.969 7.93846H146.4C146.215 7.2 145.661 7.01538 145.015 7.01538C144.646 7.01538 143.815 7.10769 143.815 7.66154C143.815 8.2733 144.576 8.44161 145.466 8.6388C145.651 8.67964 145.841 8.72172 146.031 8.76923C147.046 8.95384 148.154 9.41538 148.154 10.7077C148.154 12.3692 146.585 12.9231 145.2 12.9231ZM135.415 12.7385H136.892V8.76923C136.892 7.75384 137.538 7.01538 138.554 7.01538C139.385 7.01538 139.846 7.47692 139.846 8.49231V12.7385H141.323V8.12308C141.323 6.64615 140.4 5.81538 138.923 5.81538C138 5.81538 137.261 6.27692 136.8 7.01538V6H135.415V12.7385ZM121.754 5.81538C123.046 5.81538 124.431 6.36923 124.431 7.75384H124.338V11.1692C124.338 11.4462 124.431 11.6308 124.708 11.6308H125.077V12.6462C124.892 12.7385 124.431 12.8308 124.154 12.8308C123.6 12.8308 123.138 12.6462 123.046 12C122.492 12.5538 121.569 12.8308 120.738 12.8308C119.538 12.8308 118.431 12.1846 118.431 10.8923C118.431 9.23077 119.723 8.95384 121.015 8.76923C121.234 8.73279 121.445 8.70714 121.644 8.68305C122.451 8.58509 123.046 8.51295 123.046 7.84615C123.046 7.10769 122.215 6.92308 121.661 6.92308C120.831 6.92308 120.277 7.29231 120.185 8.03077H118.708C118.8 6.27692 120.277 5.81538 121.754 5.81538ZM122.954 10.4308C122.954 11.3538 121.938 11.7231 121.292 11.7231C120.738 11.7231 119.908 11.5385 119.908 10.8923C119.908 10.1538 120.461 9.87692 121.108 9.78461C121.269 9.76154 121.436 9.74423 121.604 9.72692C122.106 9.675 122.608 9.62308 122.954 9.41538V10.4308ZM113.077 12.7385H111.6V6H112.985V7.01538C113.446 6.27692 114.185 5.81538 115.108 5.81538C116.585 5.81538 117.508 6.64615 117.508 8.12308V12.7385H116.031V8.49231C116.031 7.47692 115.569 7.01538 114.738 7.01538C113.723 7.01538 113.077 7.75384 113.077 8.76923V12.7385ZM107.169 12.9231C109.292 12.9231 110.585 11.4462 110.585 9.41538C110.585 7.38461 109.385 5.90769 107.169 5.90769C105.046 5.90769 103.754 7.38461 103.754 9.41538C103.846 11.4462 105.046 12.9231 107.169 12.9231ZM105.231 9.32307C105.231 10.5231 105.877 11.7231 107.169 11.7231C108.554 11.7231 109.108 10.5231 109.108 9.32307C109.108 8.12308 108.461 6.92308 107.169 6.92308C105.785 6.92308 105.231 8.12308 105.231 9.32307ZM102.738 12.7385H101.261V6H102.738V12.7385ZM96.4615 7.10769H97.5692V11.0769C97.5692 12.1846 97.8461 12.8308 99.4153 12.8308C99.5538 12.8308 99.7153 12.8077 99.8769 12.7846C100.038 12.7615 100.2 12.7385 100.338 12.7385V11.6308C100.154 11.7231 99.8769 11.7231 99.6922 11.7231C99.0461 11.7231 98.9538 11.4462 98.9538 10.8V7.10769H100.246V6H98.9538V3.96923H97.4769V6H96.3692V7.10769H96.4615ZM93.1384 5.81538C94.4307 5.81538 95.8153 6.36923 95.8153 7.75384H95.723V11.1692C95.723 11.4462 95.8153 11.6308 96.0922 11.6308H96.4615V12.6462C96.2769 12.7385 95.8153 12.8308 95.5384 12.8308C94.9846 12.8308 94.523 12.6462 94.4307 12C93.8769 12.5538 92.9538 12.8308 92.123 12.8308C90.923 12.8308 89.8153 12.1846 89.8153 10.8923C89.8153 9.23077 91.1999 8.95384 92.3999 8.76923C92.6186 8.73279 92.83 8.70714 93.0286 8.68306L93.0286 8.68305L93.0286 8.68305C93.8361 8.58509 94.4307 8.51295 94.4307 7.84615C94.4307 7.10769 93.5999 6.92308 93.0461 6.92308C92.2153 6.92308 91.6615 7.29231 91.5692 8.03077H90.0923C90.1846 6.27692 91.6615 5.81538 93.1384 5.81538ZM94.3384 10.4308C94.3384 11.3538 93.323 11.7231 92.6769 11.7231C92.123 11.7231 91.2923 11.5385 91.2923 10.8923C91.2923 10.1538 91.8461 9.87692 92.4923 9.78461C92.6538 9.76154 92.8211 9.74423 92.9884 9.72692C93.4903 9.675 93.9922 9.62308 94.3384 9.41538V10.4308Z" fill="white"/>
<path d="M55.7539 47.4462L68.677 24.0923L55.7539 0.738461H59.077C60.8308 0.738461 62.9539 2.03077 63.877 3.50769L75.2308 24L63.7847 44.5846C62.9539 46.1538 60.7385 47.3538 58.9847 47.3538H55.7539V47.4462Z" fill="white"/>
<path fill-rule="evenodd" clip-rule="evenodd" d="M52.6154 0.738461L65.4462 24.0923L52.5231 47.4462H5.07699C2.67699 47.4462 0.738525 45.5077 0.738525 43.1077V5.07692C0.738525 2.67692 2.67699 0.738461 5.07699 0.738461H52.6154ZM24.9231 34.6154H21.0462L11.5385 19.2H11.4462V34.5231H7.93853V13.7538H11.8154L21.3231 29.0769H21.4154V13.7538H24.9231V34.6154ZM28.4308 34.6154H32.1231V13.7538H28.4308V34.6154ZM52.6154 34.6154V13.7538H48.9231V22.0615H39.5078V13.7538H35.8154V34.6154H39.5078V25.2H48.9231V34.6154H52.6154Z" fill="white"/>
<path d="M205.46 0V48" stroke="white"/>
<path d="M225.32 19.2C224.033 19.2 222.92 18.91 221.98 18.33C221.04 17.75 220.313 16.91 219.8 15.81C219.293 14.7033 219.04 13.3667 219.04 11.8C219.04 10.22 219.297 8.87667 219.81 7.77C220.323 6.65667 221.05 5.80667 221.99 5.22C222.937 4.63333 224.047 4.34 225.32 4.34C226.6 4.34 227.707 4.63333 228.64 5.22C229.573 5.8 230.293 6.64667 230.8 7.76C231.307 8.86667 231.56 10.2133 231.56 11.8C231.56 13.3667 231.307 14.7033 230.8 15.81C230.3 16.91 229.583 17.75 228.65 18.33C227.717 18.91 226.607 19.2 225.32 19.2ZM225.32 17.59C226.213 17.59 226.973 17.3867 227.6 16.98C228.227 16.5733 228.703 15.9433 229.03 15.09C229.363 14.2367 229.53 13.1467 229.53 11.82C229.53 10.4733 229.363 9.36667 229.03 8.5C228.697 7.63333 228.217 6.99333 227.59 6.58C226.963 6.16 226.207 5.95 225.32 5.95C224.44 5.95 223.683 6.16 223.05 6.58C222.417 7 221.93 7.64333 221.59 8.51C221.25 9.37667 221.08 10.48 221.08 11.82C221.08 13.1467 221.25 14.2367 221.59 15.09C221.93 15.9433 222.417 16.5733 223.05 16.98C223.683 17.3867 224.44 17.59 225.32 17.59ZM239.799 19.2C238.499 19.2 237.389 18.9033 236.469 18.31C235.556 17.7167 234.856 16.8633 234.369 15.75C233.889 14.6367 233.649 13.2933 233.649 11.72C233.649 10.1533 233.889 8.82 234.369 7.72C234.849 6.62 235.546 5.78333 236.459 5.21C237.379 4.63 238.493 4.34 239.799 4.34C240.819 4.34 241.723 4.55333 242.509 4.98C243.296 5.4 243.929 5.96333 244.409 6.67C244.889 7.37667 245.173 8.15333 245.259 9H243.289C243.183 8.43333 242.979 7.92 242.679 7.46C242.379 7 241.986 6.63333 241.499 6.36C241.013 6.08667 240.429 5.95 239.749 5.95C238.876 5.95 238.136 6.15667 237.529 6.57C236.929 6.97667 236.473 7.60667 236.159 8.46C235.853 9.31333 235.699 10.4067 235.699 11.74C235.699 13.7533 236.043 15.2333 236.729 16.18C237.423 17.12 238.429 17.59 239.749 17.59C240.429 17.59 241.013 17.4467 241.499 17.16C241.986 16.8733 242.379 16.49 242.679 16.01C242.979 15.53 243.183 15.01 243.289 14.45H245.259C245.186 15.0633 245.019 15.6567 244.759 16.23C244.506 16.7967 244.156 17.3033 243.709 17.75C243.263 18.1967 242.713 18.55 242.059 18.81C241.413 19.07 240.659 19.2 239.799 19.2ZM248.249 19V4.54H250.099V19H248.249ZM259.233 19.2C257.933 19.2 256.823 18.9033 255.903 18.31C254.99 17.7167 254.29 16.8633 253.803 15.75C253.323 14.6367 253.083 13.2933 253.083 11.72C253.083 10.1533 253.323 8.82 253.803 7.72C254.283 6.62 254.98 5.78333 255.893 5.21C256.813 4.63 257.926 4.34 259.233 4.34C260.253 4.34 261.156 4.55333 261.943 4.98C262.73 5.4 263.363 5.96333 263.843 6.67C264.323 7.37667 264.606 8.15333 264.693 9H262.723C262.616 8.43333 262.413 7.92 262.113 7.46C261.813 7 261.42 6.63333 260.933 6.36C260.446 6.08667 259.863 5.95 259.183 5.95C258.31 5.95 257.57 6.15667 256.963 6.57C256.363 6.97667 255.906 7.60667 255.593 8.46C255.286 9.31333 255.133 10.4067 255.133 11.74C255.133 13.7533 255.476 15.2333 256.163 16.18C256.856 17.12 257.863 17.59 259.183 17.59C259.863 17.59 260.446 17.4467 260.933 17.16C261.42 16.8733 261.813 16.49 262.113 16.01C262.413 15.53 262.616 15.01 262.723 14.45H264.693C264.62 15.0633 264.453 15.6567 264.193 16.23C263.94 16.7967 263.59 17.3033 263.143 17.75C262.696 18.1967 262.146 18.55 261.493 18.81C260.846 19.07 260.093 19.2 259.233 19.2ZM267.682 19V4.54H272.332C274.092 4.54 275.422 4.86333 276.322 5.51C277.229 6.15667 277.682 7.09 277.682 8.31C277.682 9.07667 277.482 9.73333 277.082 10.28C276.689 10.8267 275.996 11.2767 275.002 11.63C275.569 11.75 276.046 11.9233 276.432 12.15C276.826 12.3767 277.139 12.6433 277.372 12.95C277.612 13.25 277.782 13.5833 277.882 13.95C277.989 14.3167 278.042 14.7033 278.042 15.11C278.042 16.4167 277.576 17.3933 276.642 18.04C275.716 18.68 274.329 19 272.482 19H267.682ZM269.532 17.46H272.462C273.669 17.46 274.586 17.2633 275.212 16.87C275.846 16.47 276.162 15.8567 276.162 15.03C276.162 14.4233 276.006 13.9333 275.692 13.56C275.386 13.18 274.969 12.9033 274.442 12.73C273.916 12.5567 273.329 12.47 272.682 12.47H269.532V17.46ZM269.532 10.9H272.682C273.062 10.9 273.439 10.8633 273.812 10.79C274.186 10.7167 274.529 10.59 274.842 10.41C275.156 10.23 275.409 9.99 275.602 9.69C275.796 9.38333 275.892 9 275.892 8.54C275.892 7.7 275.569 7.08 274.922 6.68C274.282 6.27333 273.449 6.07 272.422 6.07H269.532V10.9ZM285.964 19V4.54H290.614C292.374 4.54 293.704 4.86333 294.604 5.51C295.51 6.15667 295.964 7.09 295.964 8.31C295.964 9.07667 295.764 9.73333 295.364 10.28C294.97 10.8267 294.277 11.2767 293.284 11.63C293.85 11.75 294.327 11.9233 294.714 12.15C295.107 12.3767 295.42 12.6433 295.654 12.95C295.894 13.25 296.064 13.5833 296.164 13.95C296.27 14.3167 296.324 14.7033 296.324 15.11C296.324 16.4167 295.857 17.3933 294.924 18.04C293.997 18.68 292.61 19 290.764 19H285.964ZM287.814 17.46H290.744C291.95 17.46 292.867 17.2633 293.494 16.87C294.127 16.47 294.444 15.8567 294.444 15.03C294.444 14.4233 294.287 13.9333 293.974 13.56C293.667 13.18 293.25 12.9033 292.724 12.73C292.197 12.5567 291.61 12.47 290.964 12.47H287.814V17.46ZM287.814 10.9H290.964C291.344 10.9 291.72 10.8633 292.094 10.79C292.467 10.7167 292.81 10.59 293.124 10.41C293.437 10.23 293.69 9.99 293.884 9.69C294.077 9.38333 294.174 9 294.174 8.54C294.174 7.7 293.85 7.08 293.204 6.68C292.564 6.27333 291.73 6.07 290.704 6.07H287.814V10.9ZM299.052 19V8.66H300.842V19H299.052ZM299.002 6.47V4.55H300.892V6.47H299.002ZM308.083 19.2C307.13 19.2 306.296 18.9967 305.583 18.59C304.876 18.1767 304.326 17.5733 303.933 16.78C303.54 15.9867 303.343 15.0167 303.343 13.87C303.343 12.79 303.526 11.8433 303.893 11.03C304.26 10.2167 304.796 9.58667 305.503 9.14C306.21 8.68667 307.073 8.46 308.093 8.46C309.046 8.46 309.873 8.67 310.573 9.09C311.273 9.50333 311.816 10.1133 312.203 10.92C312.596 11.7267 312.793 12.71 312.793 13.87C312.793 14.9233 312.613 15.85 312.253 16.65C311.893 17.45 311.363 18.0767 310.663 18.53C309.97 18.9767 309.11 19.2 308.083 19.2ZM308.093 17.74C308.706 17.74 309.226 17.5833 309.653 17.27C310.08 16.9567 310.403 16.5067 310.623 15.92C310.85 15.3333 310.963 14.6367 310.963 13.83C310.963 13.09 310.863 12.4267 310.663 11.84C310.47 11.2467 310.163 10.7767 309.743 10.43C309.323 10.0833 308.773 9.91 308.093 9.91C307.466 9.91 306.936 10.0667 306.503 10.38C306.07 10.6867 305.74 11.1333 305.513 11.72C305.293 12.3067 305.183 13.01 305.183 13.83C305.183 14.5567 305.28 15.2167 305.473 15.81C305.673 16.4033 305.986 16.8733 306.413 17.22C306.846 17.5667 307.406 17.74 308.093 17.74ZM315.302 19V8.66H317.092V19H315.302ZM315.252 6.47V4.55H317.142V6.47H315.252ZM320.31 19V8.66H322.1V10.16C322.267 9.87333 322.497 9.60333 322.79 9.35C323.09 9.09667 323.45 8.89333 323.87 8.74C324.297 8.58667 324.787 8.51 325.34 8.51C325.994 8.51 326.594 8.64 327.14 8.9C327.694 9.16 328.134 9.56667 328.46 10.12C328.794 10.6667 328.96 11.3733 328.96 12.24V19H327.11V12.42C327.11 11.6133 326.897 11.0167 326.47 10.63C326.05 10.2367 325.504 10.04 324.83 10.04C324.364 10.04 323.927 10.1167 323.52 10.27C323.114 10.4167 322.784 10.6433 322.53 10.95C322.277 11.25 322.15 11.63 322.15 12.09V19H320.31ZM332.901 19V10.01H330.711V8.66H332.901V7.06C332.901 6.24 333.108 5.61667 333.521 5.19C333.941 4.75667 334.568 4.54 335.401 4.54H337.351L337.361 5.85H335.821C335.395 5.85 335.105 5.96333 334.951 6.19C334.798 6.41667 334.721 6.76 334.721 7.22V8.66H337.261V10.01H334.751V19H332.901ZM343.454 19.2C342.501 19.2 341.668 18.9967 340.954 18.59C340.248 18.1767 339.698 17.5733 339.304 16.78C338.911 15.9867 338.714 15.0167 338.714 13.87C338.714 12.79 338.898 11.8433 339.264 11.03C339.631 10.2167 340.168 9.58667 340.874 9.14C341.581 8.68667 342.444 8.46 343.464 8.46C344.418 8.46 345.244 8.67 345.944 9.09C346.644 9.50333 347.188 10.1133 347.574 10.92C347.968 11.7267 348.164 12.71 348.164 13.87C348.164 14.9233 347.984 15.85 347.624 16.65C347.264 17.45 346.734 18.0767 346.034 18.53C345.341 18.9767 344.481 19.2 343.454 19.2ZM343.464 17.74C344.078 17.74 344.598 17.5833 345.024 17.27C345.451 16.9567 345.774 16.5067 345.994 15.92C346.221 15.3333 346.334 14.6367 346.334 13.83C346.334 13.09 346.234 12.4267 346.034 11.84C345.841 11.2467 345.534 10.7767 345.114 10.43C344.694 10.0833 344.144 9.91 343.464 9.91C342.838 9.91 342.308 10.0667 341.874 10.38C341.441 10.6867 341.111 11.1333 340.884 11.72C340.664 12.3067 340.554 13.01 340.554 13.83C340.554 14.5567 340.651 15.2167 340.844 15.81C341.044 16.4033 341.358 16.8733 341.784 17.22C342.218 17.5667 342.778 17.74 343.464 17.74ZM350.623 19V8.66H352.383V10.65C352.556 10.1567 352.799 9.75 353.113 9.43C353.426 9.10333 353.783 8.86 354.183 8.7C354.589 8.54 355.009 8.46 355.443 8.46C355.596 8.46 355.746 8.47 355.893 8.49C356.039 8.51 356.153 8.54333 356.233 8.59V10.38C356.133 10.3333 356.003 10.3033 355.843 10.29C355.689 10.27 355.559 10.26 355.453 10.26C355.039 10.2333 354.653 10.26 354.293 10.34C353.933 10.4133 353.616 10.5433 353.343 10.73C353.069 10.9167 352.853 11.1633 352.693 11.47C352.539 11.77 352.463 12.1367 352.463 12.57V19H350.623ZM358.435 19V8.66H360.215V10.16C360.502 9.70667 360.895 9.31 361.395 8.97C361.895 8.63 362.545 8.46 363.345 8.46C363.719 8.46 364.099 8.52333 364.485 8.65C364.879 8.77667 365.239 8.96667 365.565 9.22C365.892 9.47333 366.145 9.78333 366.325 10.15C366.645 9.64333 367.079 9.23667 367.625 8.93C368.172 8.61667 368.789 8.46 369.475 8.46C369.835 8.46 370.212 8.51667 370.605 8.63C370.999 8.73667 371.362 8.93 371.695 9.21C372.035 9.48333 372.312 9.86667 372.525 10.36C372.739 10.8467 372.845 11.4733 372.845 12.24V19H370.985V12.42C370.985 11.7933 370.885 11.31 370.685 10.97C370.485 10.6233 370.222 10.38 369.895 10.24C369.575 10.1 369.232 10.03 368.865 10.03C368.545 10.03 368.205 10.0933 367.845 10.22C367.485 10.3467 367.179 10.56 366.925 10.86C366.672 11.16 366.545 11.57 366.545 12.09V19H364.705V11.88C364.705 11.4733 364.595 11.1333 364.375 10.86C364.162 10.5867 363.892 10.38 363.565 10.24C363.245 10.1 362.925 10.03 362.605 10.03C362.252 10.03 361.895 10.1 361.535 10.24C361.182 10.38 360.882 10.6033 360.635 10.91C360.395 11.21 360.275 11.6033 360.275 12.09V19H358.435ZM378.601 19.2C377.928 19.2 377.334 19.0833 376.821 18.85C376.314 18.61 375.914 18.2667 375.621 17.82C375.334 17.3733 375.191 16.8333 375.191 16.2C375.191 15.0533 375.591 14.2 376.391 13.64C377.191 13.08 378.474 12.78 380.241 12.74L382.081 12.69V11.88C382.081 11.2467 381.891 10.7467 381.511 10.38C381.131 10.0067 380.544 9.82 379.751 9.82C379.158 9.82667 378.634 9.96667 378.181 10.24C377.728 10.5133 377.438 10.96 377.311 11.58H375.681C375.721 10.9067 375.908 10.34 376.241 9.88C376.581 9.41333 377.058 9.06 377.671 8.82C378.284 8.58 379.008 8.46 379.841 8.46C380.741 8.46 381.488 8.58667 382.081 8.84C382.681 9.09333 383.128 9.46667 383.421 9.96C383.721 10.4533 383.871 11.06 383.871 11.78V19H382.291L382.151 17.06C381.758 17.8667 381.251 18.4267 380.631 18.74C380.018 19.0467 379.341 19.2 378.601 19.2ZM379.151 17.87C379.504 17.87 379.851 17.8067 380.191 17.68C380.538 17.5533 380.851 17.3833 381.131 17.17C381.418 16.95 381.648 16.7067 381.821 16.44C381.994 16.1667 382.081 15.8867 382.081 15.6V13.83L380.551 13.86C379.758 13.8733 379.098 13.9533 378.571 14.1C378.044 14.2467 377.648 14.4767 377.381 14.79C377.114 15.1033 376.981 15.5133 376.981 16.02C376.981 16.6 377.184 17.0533 377.591 17.38C377.998 17.7067 378.518 17.87 379.151 17.87ZM390.116 19.05C389.403 19.05 388.849 18.9533 388.456 18.76C388.063 18.5667 387.786 18.28 387.626 17.9C387.473 17.52 387.396 17.0533 387.396 16.5V10.01H385.716V8.66H387.446L387.896 5.65H389.256V8.65H391.586V10.01H389.256V16.44C389.256 16.8067 389.293 17.0767 389.366 17.25C389.446 17.4167 389.576 17.5233 389.756 17.57C389.936 17.6167 390.189 17.64 390.516 17.64H391.646V18.88C391.519 18.9267 391.326 18.9667 391.066 19C390.813 19.0333 390.496 19.05 390.116 19.05ZM394.149 19V8.66H395.939V19H394.149ZM394.099 6.47V4.55H395.989V6.47H394.099ZM403.201 19.2C402.267 19.2 401.441 18.9967 400.721 18.59C400.007 18.1833 399.447 17.5833 399.041 16.79C398.641 15.9967 398.441 15.0233 398.441 13.87C398.441 12.79 398.624 11.8467 398.991 11.04C399.364 10.2267 399.904 9.59333 400.611 9.14C401.324 8.68667 402.187 8.46 403.201 8.46C403.941 8.46 404.604 8.60333 405.191 8.89C405.784 9.17 406.271 9.57 406.651 10.09C407.031 10.61 407.264 11.2233 407.351 11.93H405.711C405.651 11.57 405.511 11.24 405.291 10.94C405.077 10.64 404.794 10.4 404.441 10.22C404.094 10.04 403.684 9.95 403.211 9.95C402.324 9.95 401.601 10.27 401.041 10.91C400.487 11.55 400.211 12.53 400.211 13.85C400.211 15.0433 400.464 16 400.971 16.72C401.484 17.4333 402.237 17.79 403.231 17.79C403.704 17.79 404.117 17.7 404.471 17.52C404.824 17.3333 405.107 17.09 405.321 16.79C405.534 16.4833 405.671 16.1567 405.731 15.81H407.341C407.254 16.5033 407.017 17.1033 406.631 17.61C406.251 18.1167 405.764 18.51 405.171 18.79C404.584 19.0633 403.927 19.2 403.201 19.2ZM413.581 19.2C412.861 19.2 412.191 19.09 411.571 18.87C410.958 18.6433 410.448 18.2933 410.041 17.82C409.634 17.34 409.381 16.73 409.281 15.99H410.961C411.048 16.3967 411.214 16.7367 411.461 17.01C411.708 17.2767 412.011 17.48 412.371 17.62C412.738 17.7533 413.138 17.82 413.571 17.82C414.271 17.82 414.834 17.69 415.261 17.43C415.688 17.17 415.901 16.77 415.901 16.23C415.901 15.85 415.788 15.5467 415.561 15.32C415.341 15.0867 414.994 14.9167 414.521 14.81L412.381 14.28C411.548 14.08 410.881 13.7667 410.381 13.34C409.888 12.9133 409.638 12.3167 409.631 11.55C409.631 10.9433 409.778 10.41 410.071 9.95C410.364 9.49 410.801 9.12667 411.381 8.86C411.968 8.59333 412.698 8.46 413.571 8.46C414.698 8.46 415.604 8.71333 416.291 9.22C416.978 9.72 417.338 10.4567 417.371 11.43H415.731C415.664 10.9367 415.444 10.5467 415.071 10.26C414.698 9.96667 414.191 9.82 413.551 9.82C412.898 9.82 412.361 9.95333 411.941 10.22C411.528 10.48 411.321 10.8867 411.321 11.44C411.321 11.8067 411.468 12.0967 411.761 12.31C412.061 12.5167 412.494 12.69 413.061 12.83L415.141 13.35C415.614 13.4767 416.008 13.6433 416.321 13.85C416.634 14.0567 416.881 14.2867 417.061 14.54C417.241 14.7933 417.368 15.06 417.441 15.34C417.521 15.6133 417.561 15.8767 417.561 16.13C417.561 16.7633 417.404 17.31 417.091 17.77C416.778 18.2233 416.324 18.5767 415.731 18.83C415.138 19.0767 414.421 19.2 413.581 19.2ZM427.663 19.2C426.99 19.2 426.397 19.0833 425.883 18.85C425.377 18.61 424.977 18.2667 424.683 17.82C424.397 17.3733 424.253 16.8333 424.253 16.2C424.253 15.0533 424.653 14.2 425.453 13.64C426.253 13.08 427.537 12.78 429.303 12.74L431.143 12.69V11.88C431.143 11.2467 430.953 10.7467 430.573 10.38C430.193 10.0067 429.607 9.82 428.813 9.82C428.22 9.82667 427.697 9.96667 427.243 10.24C426.79 10.5133 426.5 10.96 426.373 11.58H424.743C424.783 10.9067 424.97 10.34 425.303 9.88C425.643 9.41333 426.12 9.06 426.733 8.82C427.347 8.58 428.07 8.46 428.903 8.46C429.803 8.46 430.55 8.58667 431.143 8.84C431.743 9.09333 432.19 9.46667 432.483 9.96C432.783 10.4533 432.933 11.06 432.933 11.78V19H431.353L431.213 17.06C430.82 17.8667 430.313 18.4267 429.693 18.74C429.08 19.0467 428.403 19.2 427.663 19.2ZM428.213 17.87C428.567 17.87 428.913 17.8067 429.253 17.68C429.6 17.5533 429.913 17.3833 430.193 17.17C430.48 16.95 430.71 16.7067 430.883 16.44C431.057 16.1667 431.143 15.8867 431.143 15.6V13.83L429.613 13.86C428.82 13.8733 428.16 13.9533 427.633 14.1C427.107 14.2467 426.71 14.4767 426.443 14.79C426.177 15.1033 426.043 15.5133 426.043 16.02C426.043 16.6 426.247 17.0533 426.653 17.38C427.06 17.7067 427.58 17.87 428.213 17.87ZM435.818 19V8.66H437.608V10.16C437.775 9.87333 438.005 9.60333 438.298 9.35C438.598 9.09667 438.958 8.89333 439.378 8.74C439.805 8.58667 440.295 8.51 440.848 8.51C441.501 8.51 442.101 8.64 442.648 8.9C443.201 9.16 443.641 9.56667 443.968 10.12C444.301 10.6667 444.468 11.3733 444.468 12.24V19H442.618V12.42C442.618 11.6133 442.405 11.0167 441.978 10.63C441.558 10.2367 441.011 10.04 440.338 10.04C439.871 10.04 439.435 10.1167 439.028 10.27C438.621 10.4167 438.291 10.6433 438.038 10.95C437.785 11.25 437.658 11.63 437.658 12.09V19H435.818ZM451.131 19.2C449.784 19.2 448.718 18.74 447.931 17.82C447.151 16.9 446.761 15.5567 446.761 13.79C446.761 12.7167 446.918 11.78 447.231 10.98C447.544 10.18 448.014 9.56 448.641 9.12C449.268 8.68 450.048 8.46 450.981 8.46C451.481 8.46 451.921 8.52333 452.301 8.65C452.681 8.77667 453.011 8.93667 453.291 9.13C453.571 9.32333 453.798 9.52333 453.971 9.73C454.151 9.93667 454.284 10.1267 454.371 10.3V4.14H456.241V19H454.821L454.621 16.88C454.554 17.08 454.448 17.3133 454.301 17.58C454.154 17.84 453.948 18.0967 453.681 18.35C453.421 18.5967 453.081 18.8 452.661 18.96C452.241 19.12 451.731 19.2 451.131 19.2ZM451.461 17.78C452.501 17.78 453.244 17.4633 453.691 16.83C454.144 16.19 454.371 15.1467 454.371 13.7C454.364 12.8933 454.264 12.2067 454.071 11.64C453.878 11.0733 453.571 10.6433 453.151 10.35C452.738 10.05 452.184 9.9 451.491 9.9C450.644 9.9 449.954 10.2033 449.421 10.81C448.888 11.4167 448.621 12.38 448.621 13.7C448.621 14.9933 448.861 15.9967 449.341 16.71C449.821 17.4233 450.528 17.78 451.461 17.78ZM225.19 43.2C223.89 43.2 222.78 42.9033 221.86 42.31C220.947 41.7167 220.247 40.8633 219.76 39.75C219.28 38.6367 219.04 37.2933 219.04 35.72C219.04 34.1533 219.28 32.82 219.76 31.72C220.24 30.62 220.937 29.7833 221.85 29.21C222.77 28.63 223.883 28.34 225.19 28.34C226.21 28.34 227.113 28.5533 227.9 28.98C228.687 29.4 229.32 29.9633 229.8 30.67C230.28 31.3767 230.563 32.1533 230.65 33H228.68C228.573 32.4333 228.37 31.92 228.07 31.46C227.77 31 227.377 30.6333 226.89 30.36C226.403 30.0867 225.82 29.95 225.14 29.95C224.267 29.95 223.527 30.1567 222.92 30.57C222.32 30.9767 221.863 31.6067 221.55 32.46C221.243 33.3133 221.09 34.4067 221.09 35.74C221.09 37.7533 221.433 39.2333 222.12 40.18C222.813 41.12 223.82 41.59 225.14 41.59C225.82 41.59 226.403 41.4467 226.89 41.16C227.377 40.8733 227.77 40.49 228.07 40.01C228.37 39.53 228.573 39.01 228.68 38.45H230.65C230.577 39.0633 230.41 39.6567 230.15 40.23C229.897 40.7967 229.547 41.3033 229.1 41.75C228.653 42.1967 228.103 42.55 227.45 42.81C226.803 43.07 226.05 43.2 225.19 43.2ZM237.38 43.2C236.427 43.2 235.593 42.9967 234.88 42.59C234.173 42.1767 233.623 41.5733 233.23 40.78C232.837 39.9867 232.64 39.0167 232.64 37.87C232.64 36.79 232.823 35.8433 233.19 35.03C233.557 34.2167 234.093 33.5867 234.8 33.14C235.507 32.6867 236.37 32.46 237.39 32.46C238.343 32.46 239.17 32.67 239.87 33.09C240.57 33.5033 241.113 34.1133 241.5 34.92C241.893 35.7267 242.09 36.71 242.09 37.87C242.09 38.9233 241.91 39.85 241.55 40.65C241.19 41.45 240.66 42.0767 239.96 42.53C239.267 42.9767 238.407 43.2 237.38 43.2ZM237.39 41.74C238.003 41.74 238.523 41.5833 238.95 41.27C239.377 40.9567 239.7 40.5067 239.92 39.92C240.147 39.3333 240.26 38.6367 240.26 37.83C240.26 37.09 240.16 36.4267 239.96 35.84C239.767 35.2467 239.46 34.7767 239.04 34.43C238.62 34.0833 238.07 33.91 237.39 33.91C236.763 33.91 236.233 34.0667 235.8 34.38C235.367 34.6867 235.037 35.1333 234.81 35.72C234.59 36.3067 234.48 37.01 234.48 37.83C234.48 38.5567 234.577 39.2167 234.77 39.81C234.97 40.4033 235.283 40.8733 235.71 41.22C236.143 41.5667 236.703 41.74 237.39 41.74ZM244.549 43V32.66H246.329V34.16C246.615 33.7067 247.009 33.31 247.509 32.97C248.009 32.63 248.659 32.46 249.459 32.46C249.832 32.46 250.212 32.5233 250.599 32.65C250.992 32.7767 251.352 32.9667 251.679 33.22C252.005 33.4733 252.259 33.7833 252.439 34.15C252.759 33.6433 253.192 33.2367 253.739 32.93C254.285 32.6167 254.902 32.46 255.589 32.46C255.949 32.46 256.325 32.5167 256.719 32.63C257.112 32.7367 257.475 32.93 257.809 33.21C258.149 33.4833 258.425 33.8667 258.639 34.36C258.852 34.8467 258.959 35.4733 258.959 36.24V43H257.099V36.42C257.099 35.7933 256.999 35.31 256.799 34.97C256.599 34.6233 256.335 34.38 256.009 34.24C255.689 34.1 255.345 34.03 254.979 34.03C254.659 34.03 254.319 34.0933 253.959 34.22C253.599 34.3467 253.292 34.56 253.039 34.86C252.785 35.16 252.659 35.57 252.659 36.09V43H250.819V35.88C250.819 35.4733 250.709 35.1333 250.489 34.86C250.275 34.5867 250.005 34.38 249.679 34.24C249.359 34.1 249.039 34.03 248.719 34.03C248.365 34.03 248.009 34.1 247.649 34.24C247.295 34.38 246.995 34.6033 246.749 34.91C246.509 35.21 246.389 35.6033 246.389 36.09V43H244.549ZM261.853 46.22V32.66H263.693L263.713 34.46C263.833 34.2467 263.987 34.0233 264.173 33.79C264.367 33.5567 264.6 33.34 264.873 33.14C265.153 32.94 265.477 32.7767 265.843 32.65C266.217 32.5233 266.64 32.46 267.113 32.46C267.94 32.46 268.667 32.65 269.293 33.03C269.927 33.4033 270.42 33.9767 270.773 34.75C271.127 35.5233 271.303 36.5033 271.303 37.69C271.303 38.8767 271.13 39.88 270.783 40.7C270.443 41.5133 269.95 42.1333 269.303 42.56C268.657 42.9867 267.877 43.2 266.963 43.2C266.503 43.2 266.093 43.1333 265.733 43C265.38 42.8733 265.07 42.7067 264.803 42.5C264.543 42.2867 264.323 42.06 264.143 41.82C263.97 41.58 263.827 41.35 263.713 41.13V46.22H261.853ZM266.613 41.76C267.467 41.76 268.163 41.4367 268.703 40.79C269.243 40.1367 269.513 39.1233 269.513 37.75C269.513 36.57 269.267 35.6333 268.773 34.94C268.28 34.2467 267.56 33.9 266.613 33.9C265.653 33.9 264.927 34.2567 264.433 34.97C263.94 35.6767 263.693 36.6033 263.693 37.75C263.693 38.49 263.803 39.1633 264.023 39.77C264.243 40.3767 264.57 40.86 265.003 41.22C265.437 41.58 265.973 41.76 266.613 41.76ZM277.528 43.2C276.988 43.1933 276.478 43.1167 275.998 42.97C275.525 42.8167 275.105 42.5933 274.738 42.3C274.372 42.0067 274.082 41.6433 273.868 41.21C273.662 40.77 273.558 40.26 273.558 39.68V32.66H275.408V39.49C275.408 40.1633 275.615 40.71 276.028 41.13C276.448 41.55 277.078 41.76 277.918 41.76C278.678 41.76 279.288 41.5633 279.748 41.17C280.215 40.77 280.448 40.1767 280.448 39.39V32.66H282.288V43H280.818L280.628 41.02C280.502 41.54 280.285 41.96 279.978 42.28C279.678 42.6 279.315 42.8367 278.888 42.99C278.468 43.1367 278.015 43.2067 277.528 43.2ZM289.12 43.05C288.406 43.05 287.853 42.9533 287.46 42.76C287.066 42.5667 286.79 42.28 286.63 41.9C286.476 41.52 286.4 41.0533 286.4 40.5V34.01H284.72V32.66H286.45L286.9 29.65H288.26V32.65H290.59V34.01H288.26V40.44C288.26 40.8067 288.296 41.0767 288.37 41.25C288.45 41.4167 288.58 41.5233 288.76 41.57C288.94 41.6167 289.193 41.64 289.52 41.64H290.65V42.88C290.523 42.9267 290.33 42.9667 290.07 43C289.816 43.0333 289.5 43.05 289.12 43.05ZM295.945 43.2C295.271 43.2 294.678 43.0833 294.165 42.85C293.658 42.61 293.258 42.2667 292.965 41.82C292.678 41.3733 292.535 40.8333 292.535 40.2C292.535 39.0533 292.935 38.2 293.735 37.64C294.535 37.08 295.818 36.78 297.585 36.74L299.425 36.69V35.88C299.425 35.2467 299.235 34.7467 298.855 34.38C298.475 34.0067 297.888 33.82 297.095 33.82C296.501 33.8267 295.978 33.9667 295.525 34.24C295.071 34.5133 294.781 34.96 294.655 35.58H293.025C293.065 34.9067 293.251 34.34 293.585 33.88C293.925 33.4133 294.401 33.06 295.015 32.82C295.628 32.58 296.351 32.46 297.185 32.46C298.085 32.46 298.831 32.5867 299.425 32.84C300.025 33.0933 300.471 33.4667 300.765 33.96C301.065 34.4533 301.215 35.06 301.215 35.78V43H299.635L299.495 41.06C299.101 41.8667 298.595 42.4267 297.975 42.74C297.361 43.0467 296.685 43.2 295.945 43.2ZM296.495 41.87C296.848 41.87 297.195 41.8067 297.535 41.68C297.881 41.5533 298.195 41.3833 298.475 41.17C298.761 40.95 298.991 40.7067 299.165 40.44C299.338 40.1667 299.425 39.8867 299.425 39.6V37.83L297.895 37.86C297.101 37.8733 296.441 37.9533 295.915 38.1C295.388 38.2467 294.991 38.4767 294.725 38.79C294.458 39.1033 294.325 39.5133 294.325 40.02C294.325 40.6 294.528 41.0533 294.935 41.38C295.341 41.7067 295.861 41.87 296.495 41.87ZM307.46 43.05C306.746 43.05 306.193 42.9533 305.8 42.76C305.406 42.5667 305.13 42.28 304.97 41.9C304.816 41.52 304.74 41.0533 304.74 40.5V34.01H303.06V32.66H304.79L305.24 29.65H306.6V32.65H308.93V34.01H306.6V40.44C306.6 40.8067 306.636 41.0767 306.71 41.25C306.79 41.4167 306.92 41.5233 307.1 41.57C307.28 41.6167 307.533 41.64 307.86 41.64H308.99V42.88C308.863 42.9267 308.67 42.9667 308.41 43C308.156 43.0333 307.84 43.05 307.46 43.05ZM311.493 43V32.66H313.283V43H311.493ZM311.443 30.47V28.55H313.333V30.47H311.443ZM320.524 43.2C319.571 43.2 318.738 42.9967 318.024 42.59C317.318 42.1767 316.768 41.5733 316.374 40.78C315.981 39.9867 315.784 39.0167 315.784 37.87C315.784 36.79 315.968 35.8433 316.334 35.03C316.701 34.2167 317.238 33.5867 317.944 33.14C318.651 32.6867 319.514 32.46 320.534 32.46C321.488 32.46 322.314 32.67 323.014 33.09C323.714 33.5033 324.258 34.1133 324.644 34.92C325.038 35.7267 325.234 36.71 325.234 37.87C325.234 38.9233 325.054 39.85 324.694 40.65C324.334 41.45 323.804 42.0767 323.104 42.53C322.411 42.9767 321.551 43.2 320.524 43.2ZM320.534 41.74C321.148 41.74 321.668 41.5833 322.094 41.27C322.521 40.9567 322.844 40.5067 323.064 39.92C323.291 39.3333 323.404 38.6367 323.404 37.83C323.404 37.09 323.304 36.4267 323.104 35.84C322.911 35.2467 322.604 34.7767 322.184 34.43C321.764 34.0833 321.214 33.91 320.534 33.91C319.908 33.91 319.378 34.0667 318.944 34.38C318.511 34.6867 318.181 35.1333 317.954 35.72C317.734 36.3067 317.624 37.01 317.624 37.83C317.624 38.5567 317.721 39.2167 317.914 39.81C318.114 40.4033 318.428 40.8733 318.854 41.22C319.288 41.5667 319.848 41.74 320.534 41.74ZM327.693 43V32.66H329.483V34.16C329.65 33.8733 329.88 33.6033 330.173 33.35C330.473 33.0967 330.833 32.8933 331.253 32.74C331.68 32.5867 332.17 32.51 332.723 32.51C333.376 32.51 333.976 32.64 334.523 32.9C335.076 33.16 335.516 33.5667 335.843 34.12C336.176 34.6667 336.343 35.3733 336.343 36.24V43H334.493V36.42C334.493 35.6133 334.28 35.0167 333.853 34.63C333.433 34.2367 332.886 34.04 332.213 34.04C331.746 34.04 331.31 34.1167 330.903 34.27C330.496 34.4167 330.166 34.6433 329.913 34.95C329.66 35.25 329.533 35.63 329.533 36.09V43H327.693ZM342.097 43.2C341.424 43.2 340.83 43.0833 340.317 42.85C339.81 42.61 339.41 42.2667 339.117 41.82C338.83 41.3733 338.687 40.8333 338.687 40.2C338.687 39.0533 339.087 38.2 339.887 37.64C340.687 37.08 341.97 36.78 343.737 36.74L345.577 36.69V35.88C345.577 35.2467 345.387 34.7467 345.007 34.38C344.627 34.0067 344.04 33.82 343.247 33.82C342.654 33.8267 342.13 33.9667 341.677 34.24C341.224 34.5133 340.934 34.96 340.807 35.58H339.177C339.217 34.9067 339.404 34.34 339.737 33.88C340.077 33.4133 340.554 33.06 341.167 32.82C341.78 32.58 342.504 32.46 343.337 32.46C344.237 32.46 344.984 32.5867 345.577 32.84C346.177 33.0933 346.624 33.4667 346.917 33.96C347.217 34.4533 347.367 35.06 347.367 35.78V43H345.787L345.647 41.06C345.254 41.8667 344.747 42.4267 344.127 42.74C343.514 43.0467 342.837 43.2 342.097 43.2ZM342.647 41.87C343 41.87 343.347 41.8067 343.687 41.68C344.034 41.5533 344.347 41.3833 344.627 41.17C344.914 40.95 345.144 40.7067 345.317 40.44C345.49 40.1667 345.577 39.8867 345.577 39.6V37.83L344.047 37.86C343.254 37.8733 342.594 37.9533 342.067 38.1C341.54 38.2467 341.144 38.4767 340.877 38.79C340.61 39.1033 340.477 39.5133 340.477 40.02C340.477 40.6 340.68 41.0533 341.087 41.38C341.494 41.7067 342.014 41.87 342.647 41.87ZM352.862 43.13C352.302 43.13 351.848 43.0533 351.502 42.9C351.162 42.7467 350.898 42.54 350.712 42.28C350.532 42.02 350.408 41.7233 350.342 41.39C350.282 41.05 350.252 40.7 350.252 40.34V28.14H352.072V40.16C352.072 40.68 352.172 41.07 352.372 41.33C352.578 41.59 352.865 41.7333 353.232 41.76L353.792 41.77V42.97C353.638 43.0167 353.478 43.0533 353.312 43.08C353.145 43.1133 352.995 43.13 352.862 43.13ZM361.55 43V28.54H366.2C367.96 28.54 369.29 28.8633 370.19 29.51C371.096 30.1567 371.55 31.09 371.55 32.31C371.55 33.0767 371.35 33.7333 370.95 34.28C370.556 34.8267 369.863 35.2767 368.87 35.63C369.436 35.75 369.913 35.9233 370.3 36.15C370.693 36.3767 371.006 36.6433 371.24 36.95C371.48 37.25 371.65 37.5833 371.75 37.95C371.856 38.3167 371.91 38.7033 371.91 39.11C371.91 40.4167 371.443 41.3933 370.51 42.04C369.583 42.68 368.196 43 366.35 43H361.55ZM363.4 41.46H366.33C367.536 41.46 368.453 41.2633 369.08 40.87C369.713 40.47 370.03 39.8567 370.03 39.03C370.03 38.4233 369.873 37.9333 369.56 37.56C369.253 37.18 368.836 36.9033 368.31 36.73C367.783 36.5567 367.196 36.47 366.55 36.47H363.4V41.46ZM363.4 34.9H366.55C366.93 34.9 367.306 34.8633 367.68 34.79C368.053 34.7167 368.396 34.59 368.71 34.41C369.023 34.23 369.276 33.99 369.47 33.69C369.663 33.3833 369.76 33 369.76 32.54C369.76 31.7 369.436 31.08 368.79 30.68C368.15 30.2733 367.316 30.07 366.29 30.07H363.4V34.9ZM374.638 43V32.66H376.428V43H374.638ZM374.588 30.47V28.55H376.478V30.47H374.588ZM383.669 43.2C382.716 43.2 381.882 42.9967 381.169 42.59C380.462 42.1767 379.912 41.5733 379.519 40.78C379.126 39.9867 378.929 39.0167 378.929 37.87C378.929 36.79 379.112 35.8433 379.479 35.03C379.846 34.2167 380.382 33.5867 381.089 33.14C381.796 32.6867 382.659 32.46 383.679 32.46C384.632 32.46 385.459 32.67 386.159 33.09C386.859 33.5033 387.402 34.1133 387.789 34.92C388.182 35.7267 388.379 36.71 388.379 37.87C388.379 38.9233 388.199 39.85 387.839 40.65C387.479 41.45 386.949 42.0767 386.249 42.53C385.556 42.9767 384.696 43.2 383.669 43.2ZM383.679 41.74C384.292 41.74 384.812 41.5833 385.239 41.27C385.666 40.9567 385.989 40.5067 386.209 39.92C386.436 39.3333 386.549 38.6367 386.549 37.83C386.549 37.09 386.449 36.4267 386.249 35.84C386.056 35.2467 385.749 34.7767 385.329 34.43C384.909 34.0833 384.359 33.91 383.679 33.91C383.052 33.91 382.522 34.0667 382.089 34.38C381.656 34.6867 381.326 35.1333 381.099 35.72C380.879 36.3067 380.769 37.01 380.769 37.83C380.769 38.5567 380.866 39.2167 381.059 39.81C381.259 40.4033 381.572 40.8733 381.999 41.22C382.432 41.5667 382.992 41.74 383.679 41.74ZM394.499 43.2C393.779 43.2 393.109 43.09 392.489 42.87C391.876 42.6433 391.366 42.2933 390.959 41.82C390.552 41.34 390.299 40.73 390.199 39.99H391.879C391.966 40.3967 392.132 40.7367 392.379 41.01C392.626 41.2767 392.929 41.48 393.289 41.62C393.656 41.7533 394.056 41.82 394.489 41.82C395.189 41.82 395.752 41.69 396.179 41.43C396.606 41.17 396.819 40.77 396.819 40.23C396.819 39.85 396.706 39.5467 396.479 39.32C396.259 39.0867 395.912 38.9167 395.439 38.81L393.299 38.28C392.466 38.08 391.799 37.7667 391.299 37.34C390.806 36.9133 390.556 36.3167 390.549 35.55C390.549 34.9433 390.696 34.41 390.989 33.95C391.282 33.49 391.719 33.1267 392.299 32.86C392.886 32.5933 393.616 32.46 394.489 32.46C395.616 32.46 396.522 32.7133 397.209 33.22C397.896 33.72 398.256 34.4567 398.289 35.43H396.649C396.582 34.9367 396.362 34.5467 395.989 34.26C395.616 33.9667 395.109 33.82 394.469 33.82C393.816 33.82 393.279 33.9533 392.859 34.22C392.446 34.48 392.239 34.8867 392.239 35.44C392.239 35.8067 392.386 36.0967 392.679 36.31C392.979 36.5167 393.412 36.69 393.979 36.83L396.059 37.35C396.532 37.4767 396.926 37.6433 397.239 37.85C397.552 38.0567 397.799 38.2867 397.979 38.54C398.159 38.7933 398.286 39.06 398.359 39.34C398.439 39.6133 398.479 39.8767 398.479 40.13C398.479 40.7633 398.322 41.31 398.009 41.77C397.696 42.2233 397.242 42.5767 396.649 42.83C396.056 43.0767 395.339 43.2 394.499 43.2ZM405.056 43.2C404.123 43.2 403.296 42.9967 402.576 42.59C401.863 42.1833 401.303 41.5833 400.896 40.79C400.496 39.9967 400.296 39.0233 400.296 37.87C400.296 36.79 400.48 35.8467 400.846 35.04C401.22 34.2267 401.76 33.5933 402.466 33.14C403.18 32.6867 404.043 32.46 405.056 32.46C405.796 32.46 406.46 32.6033 407.046 32.89C407.64 33.17 408.126 33.57 408.506 34.09C408.886 34.61 409.12 35.2233 409.206 35.93H407.566C407.506 35.57 407.366 35.24 407.146 34.94C406.933 34.64 406.65 34.4 406.296 34.22C405.95 34.04 405.54 33.95 405.066 33.95C404.18 33.95 403.456 34.27 402.896 34.91C402.343 35.55 402.066 36.53 402.066 37.85C402.066 39.0433 402.32 40 402.826 40.72C403.34 41.4333 404.093 41.79 405.086 41.79C405.56 41.79 405.973 41.7 406.326 41.52C406.68 41.3333 406.963 41.09 407.176 40.79C407.39 40.4833 407.526 40.1567 407.586 39.81H409.196C409.11 40.5033 408.873 41.1033 408.486 41.61C408.106 42.1167 407.62 42.51 407.026 42.79C406.44 43.0633 405.783 43.2 405.056 43.2ZM411.708 43V32.66H413.498V43H411.708ZM411.658 30.47V28.55H413.548V30.47H411.658ZM420.969 43.2C420.009 43.2 419.163 42.99 418.429 42.57C417.696 42.15 417.123 41.5467 416.709 40.76C416.296 39.9733 416.089 39.03 416.089 37.93C416.089 36.8433 416.276 35.89 416.649 35.07C417.023 34.25 417.563 33.61 418.269 33.15C418.983 32.69 419.839 32.46 420.839 32.46C421.813 32.46 422.636 32.67 423.309 33.09C423.983 33.51 424.493 34.1033 424.839 34.87C425.193 35.63 425.369 36.5333 425.369 37.58V38.26H417.959C417.959 38.9133 418.066 39.5067 418.279 40.04C418.499 40.5667 418.829 40.9867 419.269 41.3C419.709 41.6133 420.266 41.77 420.939 41.77C421.599 41.77 422.166 41.6167 422.639 41.31C423.119 41.0033 423.426 40.56 423.559 39.98H425.299C425.179 40.68 424.899 41.27 424.459 41.75C424.026 42.23 423.503 42.5933 422.889 42.84C422.283 43.08 421.643 43.2 420.969 43.2ZM417.969 37.01H423.589C423.589 36.4167 423.489 35.8833 423.289 35.41C423.089 34.93 422.783 34.5533 422.369 34.28C421.963 34 421.449 33.86 420.829 33.86C420.183 33.86 419.646 34.0167 419.219 34.33C418.793 34.6367 418.476 35.0333 418.269 35.52C418.063 36 417.963 36.4967 417.969 37.01ZM427.927 43V32.66H429.717V34.16C429.884 33.8733 430.114 33.6033 430.407 33.35C430.707 33.0967 431.067 32.8933 431.487 32.74C431.914 32.5867 432.404 32.51 432.957 32.51C433.611 32.51 434.211 32.64 434.757 32.9C435.311 33.16 435.751 33.5667 436.077 34.12C436.411 34.6667 436.577 35.3733 436.577 36.24V43H434.727V36.42C434.727 35.6133 434.514 35.0167 434.087 34.63C433.667 34.2367 433.121 34.04 432.447 34.04C431.981 34.04 431.544 34.1167 431.137 34.27C430.731 34.4167 430.401 34.6433 430.147 34.95C429.894 35.25 429.767 35.63 429.767 36.09V43H427.927ZM443.63 43.2C442.697 43.2 441.87 42.9967 441.15 42.59C440.437 42.1833 439.877 41.5833 439.47 40.79C439.07 39.9967 438.87 39.0233 438.87 37.87C438.87 36.79 439.054 35.8467 439.42 35.04C439.794 34.2267 440.334 33.5933 441.04 33.14C441.754 32.6867 442.617 32.46 443.63 32.46C444.37 32.46 445.034 32.6033 445.62 32.89C446.214 33.17 446.7 33.57 447.08 34.09C447.46 34.61 447.694 35.2233 447.78 35.93H446.14C446.08 35.57 445.94 35.24 445.72 34.94C445.507 34.64 445.224 34.4 444.87 34.22C444.524 34.04 444.114 33.95 443.64 33.95C442.754 33.95 442.03 34.27 441.47 34.91C440.917 35.55 440.64 36.53 440.64 37.85C440.64 39.0433 440.894 40 441.4 40.72C441.914 41.4333 442.667 41.79 443.66 41.79C444.134 41.79 444.547 41.7 444.9 41.52C445.254 41.3333 445.537 41.09 445.75 40.79C445.964 40.4833 446.1 40.1567 446.16 39.81H447.77C447.684 40.5033 447.447 41.1033 447.06 41.61C446.68 42.1167 446.194 42.51 445.6 42.79C445.014 43.0633 444.357 43.2 443.63 43.2ZM454.661 43.2C453.701 43.2 452.854 42.99 452.121 42.57C451.387 42.15 450.814 41.5467 450.401 40.76C449.987 39.9733 449.781 39.03 449.781 37.93C449.781 36.8433 449.967 35.89 450.341 35.07C450.714 34.25 451.254 33.61 451.961 33.15C452.674 32.69 453.531 32.46 454.531 32.46C455.504 32.46 456.327 32.67 457.001 33.09C457.674 33.51 458.184 34.1033 458.531 34.87C458.884 35.63 459.061 36.5333 459.061 37.58V38.26H451.651C451.651 38.9133 451.757 39.5067 451.971 40.04C452.191 40.5667 452.521 40.9867 452.961 41.3C453.401 41.6133 453.957 41.77 454.631 41.77C455.291 41.77 455.857 41.6167 456.331 41.31C456.811 41.0033 457.117 40.56 457.251 39.98H458.991C458.871 40.68 458.591 41.27 458.151 41.75C457.717 42.23 457.194 42.5933 456.581 42.84C455.974 43.08 455.334 43.2 454.661 43.2ZM451.661 37.01H457.281C457.281 36.4167 457.181 35.8833 456.981 35.41C456.781 34.93 456.474 34.5533 456.061 34.28C455.654 34 455.141 33.86 454.521 33.86C453.874 33.86 453.337 34.0167 452.911 34.33C452.484 34.6367 452.167 35.0333 451.961 35.52C451.754 36 451.654 36.4967 451.661 37.01ZM465.28 43.2C464.56 43.2 463.89 43.09 463.27 42.87C462.657 42.6433 462.147 42.2933 461.74 41.82C461.334 41.34 461.08 40.73 460.98 39.99H462.66C462.747 40.3967 462.914 40.7367 463.16 41.01C463.407 41.2767 463.71 41.48 464.07 41.62C464.437 41.7533 464.837 41.82 465.27 41.82C465.97 41.82 466.534 41.69 466.96 41.43C467.387 41.17 467.6 40.77 467.6 40.23C467.6 39.85 467.487 39.5467 467.26 39.32C467.04 39.0867 466.694 38.9167 466.22 38.81L464.08 38.28C463.247 38.08 462.58 37.7667 462.08 37.34C461.587 36.9133 461.337 36.3167 461.33 35.55C461.33 34.9433 461.477 34.41 461.77 33.95C462.064 33.49 462.5 33.1267 463.08 32.86C463.667 32.5933 464.397 32.46 465.27 32.46C466.397 32.46 467.304 32.7133 467.99 33.22C468.677 33.72 469.037 34.4567 469.07 35.43H467.43C467.364 34.9367 467.144 34.5467 466.77 34.26C466.397 33.9667 465.89 33.82 465.25 33.82C464.597 33.82 464.06 33.9533 463.64 34.22C463.227 34.48 463.02 34.8867 463.02 35.44C463.02 35.8067 463.167 36.0967 463.46 36.31C463.76 36.5167 464.194 36.69 464.76 36.83L466.84 37.35C467.314 37.4767 467.707 37.6433 468.02 37.85C468.334 38.0567 468.58 38.2867 468.76 38.54C468.94 38.7933 469.067 39.06 469.14 39.34C469.22 39.6133 469.26 39.8767 469.26 40.13C469.26 40.7633 469.104 41.31 468.79 41.77C468.477 42.2233 468.024 42.5767 467.43 42.83C466.837 43.0767 466.12 43.2 465.28 43.2Z" fill="white"/>
</svg>
